<?xml version="1.0" encoding="UTF-8" standalone="no"?>
<!DOCTYPE svg PUBLIC "-//W3C//DTD SVG 1.1//EN" "http://www.w3.org/Graphics/SVG/1.1/DTD/svg11.dtd">
<svg width="100%" height="100%" viewBox="0 0 58 58" version="1.1" xmlns="http://www.w3.org/2000/svg" xmlns:xlink="http://www.w3.org/1999/xlink" xml:space="preserve" xmlns:serif="http://www.serif.com/" style="fill-rule:evenodd;clip-rule:evenodd;stroke-linejoin:round;stroke-miterlimit:2;">
    <g transform="matrix(1,0,0,1,-3,-3)">
        <path d="M9.5,59.088C8.892,59.696 8.066,60.038 7.206,60.038C5.426,60.038 3.962,58.574 3.962,56.794C3.962,55.934 4.304,55.108 4.912,54.5L13.924,47.336L16.662,50.074L9.5,59.088ZM29,45.586L21.707,38.293C21.521,38.113 21.271,38.012 21.012,38.012C20.464,38.012 20.012,38.464 20.012,39.012C20.012,39.271 20.113,39.521 20.293,39.707L27.586,47L26,48.586L20.707,43.293C20.521,43.113 20.271,43.012 20.012,43.012C19.464,43.012 19.012,43.464 19.012,44.012C19.012,44.271 19.113,44.521 19.293,44.707L24.586,50L22,52.586L11.414,42L42,11.414L52.586,22L29,45.586ZM59.088,9.5L50.076,16.664L47.338,13.926L54.5,4.912C55.108,4.304 55.934,3.962 56.794,3.962C58.574,3.962 60.038,5.426 60.038,7.206C60.038,8.066 59.696,8.892 59.088,9.5Z" style="fill-rule:nonzero;"/>
    </g>
</svg>
