<?xml version="1.0" encoding="UTF-8" standalone="no"?>
<!DOCTYPE svg PUBLIC "-//W3C//DTD SVG 1.1//EN" "http://www.w3.org/Graphics/SVG/1.1/DTD/svg11.dtd">
<svg width="100%" height="100%" viewBox="0 0 60 60" version="1.1" xmlns="http://www.w3.org/2000/svg" xmlns:xlink="http://www.w3.org/1999/xlink" xml:space="preserve" xmlns:serif="http://www.serif.com/" style="fill-rule:evenodd;clip-rule:evenodd;stroke-linejoin:round;stroke-miterlimit:2;">
    <g transform="matrix(1,0,0,1,-2,-2)">
        <g>
            <path d="M56.758,2C55.367,1.995 54.03,2.549 53.05,3.536C53.023,3.562 52.998,3.59 52.975,3.62L45.914,12.5L42.707,9.293C42.319,8.905 41.681,8.905 41.293,9.293L9.293,41.293C8.905,41.681 8.905,42.319 9.293,42.707L12.5,45.915L3.62,52.975C3.59,52.998 3.561,53.024 3.534,53.051C2.569,54.031 2.028,55.353 2.028,56.729C2.028,59.605 4.394,61.972 7.271,61.972C8.647,61.972 9.969,61.43 10.95,60.464C10.977,60.438 11.002,60.41 11.025,60.38L18.086,51.5L21.293,54.707C21.681,55.095 22.319,55.095 22.707,54.707L46.191,31.223C46.386,31.035 46.496,30.775 46.496,30.504C46.496,29.955 46.045,29.504 45.496,29.504C45.225,29.504 44.965,29.614 44.777,29.809L29,45.586L21.707,38.293C21.521,38.113 21.271,38.012 21.012,38.012C20.464,38.012 20.012,38.464 20.012,39.012C20.012,39.271 20.113,39.521 20.293,39.707L27.586,47L26,48.586L20.707,43.293C20.521,43.113 20.271,43.012 20.012,43.012C19.464,43.012 19.012,43.464 19.012,44.012C19.012,44.271 19.113,44.521 19.293,44.707L24.586,50L22,52.586L11.414,42L42,11.414L52.586,22L49.824,24.762C49.629,24.95 49.519,25.21 49.519,25.481C49.519,26.03 49.97,26.481 50.519,26.481C50.79,26.481 51.05,26.371 51.238,26.176L54.707,22.707C55.095,22.319 55.095,21.681 54.707,21.293L51.5,18.085L60.381,11.025C60.411,11.002 60.44,10.976 60.467,10.949C61.449,9.966 62.001,8.632 62.001,7.243C62.001,4.367 59.635,2 56.758,2C56.758,2 56.758,2 56.758,2ZM16.658,50.076L9.5,59.088C8.892,59.696 8.066,60.038 7.206,60.038C5.426,60.038 3.962,58.574 3.962,56.794C3.962,55.934 4.304,55.108 4.912,54.5L13.924,47.336L16.658,50.076ZM59.088,9.5L50.076,16.664L47.338,13.926L54.5,4.912C55.108,4.304 55.934,3.962 56.794,3.962C58.574,3.962 60.038,5.426 60.038,7.206C60.038,8.066 59.696,8.892 59.088,9.5Z" style="fill-rule:nonzero;"/>
            <circle cx="48" cy="28" r="1"/>
        </g>
    </g>
</svg>
